<?xml version="1.0" encoding="UTF-8"?>
<svg xmlns="http://www.w3.org/2000/svg" xmlns:xlink="http://www.w3.org/1999/xlink" width="250px" height="60px" viewBox="0 0 251 60" version="1.1">
<g id="surface1">
<path style=" stroke:none;fill-rule:nonzero;fill:rgb(0.392157%,61.56863%,95.686275%);fill-opacity:1;" d="M 16.484375 7.875 C 12.738281 7.875 5.621094 9.75 2.433594 22.6875 C 0.9375 28.6875 0.5625 35.0625 1.6875 41.25 C 2.621094 46.5 4.121094 51.5625 5.992188 56.4375 C 6.367188 57.375 6.929688 58.5 7.679688 59.25 C 8.992188 60.75 11.050781 61.3125 12.925781 60.5625 C 14.234375 60 15.546875 58.6875 14.984375 55.5 C 14.609375 53.8125 14.234375 52.125 13.675781 50.4375 C 12.175781 46.6875 11.238281 42.5625 10.675781 38.625 C 10.488281 34.125 12.175781 33.5625 13.488281 33.375 C 15.546875 33 17.046875 35.0625 18.730469 37.6875 C 20.605469 40.875 23.789062 46.5 26.410156 51 C 29.222656 56.0625 34.464844 59.0625 40.273438 58.875 C 47.390625 58.5 52.824219 55.875 55.445312 47.4375 C 56.941406 42 59.003906 36.5625 61.0625 31.5 C 63.6875 25.875 67.058594 22.875 70.054688 23.8125 C 72.675781 24.75 73.425781 27.1875 73.425781 31.125 C 73.425781 34.3125 73.238281 37.6875 72.675781 40.875 C 72.492188 42.1875 72.492188 43.5 72.492188 45 C 72.304688 47.25 73.800781 49.3125 76.050781 49.6875 C 78.671875 49.875 81.105469 48 81.667969 45.375 C 82.042969 44.25 82.230469 42.9375 82.417969 41.8125 C 83.167969 36.9375 83.355469 32.0625 82.980469 27.1875 C 82.605469 21.1875 81.292969 15.1875 79.046875 9.5625 C 76.796875 4.6875 73.425781 1.5 68.929688 1.3125 C 64.0625 0.9375 58.441406 4.3125 55.445312 10.5 C 52.636719 16.3125 50.574219 22.125 49.261719 25.125 C 48.328125 27.9375 45.890625 30 42.894531 30.375 C 39.148438 30.75 35.964844 28.125 33.714844 24.375 C 31.28125 20.25 28.472656 16.3125 25.476562 12.75 C 23.601562 10.3125 21.355469 7.875 16.484375 7.875 M 134.679688 16.5 L 134.679688 41.0625 L 131.308594 41.0625 C 130.746094 41.0625 130.183594 40.6875 130.183594 40.125 L 130.183594 23.625 L 123.441406 34.5 L 120.441406 34.5 C 120.066406 34.5 119.878906 34.5 119.507812 34.3125 C 119.320312 34.125 119.132812 33.9375 118.945312 33.5625 L 112.574219 23.8125 L 112.574219 40.875 L 107.890625 40.875 L 107.890625 18 C 107.890625 17.0625 108.453125 16.6875 109.390625 16.6875 L 113.136719 16.6875 L 121.566406 29.8125 L 128.871094 17.625 C 129.246094 17.25 129.433594 16.875 129.808594 16.6875 C 130.183594 16.5 130.558594 16.5 130.933594 16.5 Z M 142.734375 40.3125 C 141.421875 39.5625 140.296875 38.4375 139.546875 37.125 C 138.050781 34.125 138.050781 30.75 139.546875 27.75 C 140.296875 26.4375 141.421875 25.3125 142.734375 24.5625 C 145.730469 23.0625 149.289062 23.0625 152.285156 24.5625 C 153.597656 25.3125 154.722656 26.4375 155.46875 27.75 C 156.96875 30.75 156.96875 34.125 155.46875 37.125 C 154.722656 38.4375 153.597656 39.5625 152.285156 40.3125 C 149.289062 41.8125 145.730469 41.8125 142.734375 40.3125 M 150.414062 36.375 C 151.910156 33.9375 151.910156 31.125 150.414062 28.6875 C 148.914062 27 146.480469 26.8125 144.792969 28.3125 C 144.605469 28.5 144.417969 28.5 144.417969 28.6875 C 142.921875 31.125 142.921875 33.9375 144.417969 36.375 C 145.730469 38.0625 148.351562 38.25 150.039062 36.9375 C 150.226562 36.5625 150.414062 36.5625 150.414062 36.375 M 171.953125 23.8125 L 177.011719 23.8125 L 169.519531 41.0625 L 166.148438 41.0625 C 165.773438 41.0625 165.585938 41.0625 165.210938 40.875 C 165.023438 40.6875 164.835938 40.5 164.648438 40.125 L 158.28125 25.125 C 158.28125 24.9375 158.09375 24.75 158.09375 24.5625 C 158.09375 24.375 158.09375 24.1875 158.28125 24 C 158.46875 23.8125 158.839844 23.8125 159.027344 23.8125 L 162.773438 23.8125 L 167.269531 35.8125 Z M 180.382812 20.4375 C 180.007812 20.25 179.632812 19.875 179.257812 19.5 C 179.070312 19.125 178.882812 18.5625 178.882812 18 C 178.882812 17.4375 179.070312 17.0625 179.257812 16.5 C 179.445312 16.125 179.820312 15.75 180.382812 15.5625 C 181.320312 15 182.441406 15 183.191406 15.5625 C 184.128906 16.125 184.691406 17.0625 184.691406 18 C 184.691406 18.5625 184.503906 18.9375 184.316406 19.5 C 184.128906 19.875 183.753906 20.25 183.191406 20.625 C 182.441406 20.8125 181.320312 20.8125 180.382812 20.4375 M 179.445312 24.9375 C 179.445312 24.375 179.820312 23.8125 180.382812 23.8125 L 184.503906 23.8125 L 184.503906 41.0625 L 179.632812 41.0625 L 179.632812 24.9375 Z M 191.621094 41.25 C 190.871094 41.25 190.125 41.0625 189.375 40.875 C 189 40.875 188.625 40.6875 188.4375 40.3125 C 188.25 40.125 188.25 39.75 188.25 39.5625 L 188.25 37.125 C 189.1875 37.3125 190.308594 37.6875 191.246094 37.6875 C 192.183594 37.875 193.121094 37.875 194.242188 37.875 C 195.179688 37.875 195.929688 37.6875 196.867188 37.3125 C 197.429688 37.125 197.617188 36.5625 197.617188 36 C 197.617188 35.625 197.429688 35.4375 197.242188 35.0625 C 197.054688 34.875 196.679688 34.6875 196.304688 34.5 C 195.929688 34.3125 195.367188 34.3125 194.804688 34.125 L 193.121094 33.75 C 191.621094 33.5625 190.308594 32.8125 189.1875 31.875 C 188.25 30.9375 187.6875 29.8125 187.875 28.5 C 187.875 27 188.625 25.5 189.9375 24.75 C 191.621094 23.8125 193.683594 23.4375 195.742188 23.4375 C 196.492188 23.4375 197.429688 23.4375 198.175781 23.625 C 198.925781 23.625 199.488281 23.8125 200.238281 24 C 200.613281 24 200.800781 24.1875 201.175781 24.375 C 201.363281 24.5625 201.363281 24.9375 201.363281 25.3125 L 201.363281 27.5625 C 199.488281 27.1875 197.617188 26.8125 195.742188 26.8125 C 193.683594 26.8125 192.746094 27.375 192.746094 28.3125 C 192.746094 28.6875 193.121094 29.25 193.496094 29.4375 C 194.242188 29.8125 194.804688 30 195.554688 30.1875 L 197.429688 30.75 C 198.363281 30.9375 199.113281 31.3125 200.050781 31.6875 C 200.800781 32.0625 201.363281 32.625 201.738281 33.1875 C 203.046875 35.4375 202.484375 38.4375 200.425781 40.125 C 198.738281 41.25 196.679688 41.625 194.617188 41.625 C 193.496094 41.4375 192.558594 41.4375 191.621094 41.25 M 209.605469 40.875 C 208.667969 40.5 207.917969 39.75 207.355469 39 C 206.792969 38.0625 206.605469 37.125 206.605469 36 L 206.605469 27.375 L 203.046875 27.375 L 203.046875 25.125 C 203.046875 24.5625 203.421875 24 203.984375 24 L 206.792969 24 L 206.792969 18.75 C 206.792969 18.375 206.792969 18 207.167969 17.8125 C 207.355469 17.625 207.730469 17.4375 208.105469 17.4375 L 211.851562 17.4375 L 211.851562 23.625 L 216.535156 23.625 L 216.535156 27 L 211.664062 27 L 211.664062 34.875 C 211.664062 35.625 211.851562 36.375 212.226562 36.9375 C 212.789062 37.5 213.539062 37.6875 214.285156 37.6875 C 215.222656 37.6875 216.160156 37.5 217.097656 37.3125 L 217.097656 39.5625 C 217.097656 39.75 217.097656 40.125 216.910156 40.3125 C 216.722656 40.5 216.347656 40.6875 216.160156 40.875 C 215.785156 41.0625 215.222656 41.25 214.847656 41.25 C 214.285156 41.25 213.726562 41.4375 212.976562 41.4375 C 211.851562 41.4375 210.726562 41.25 209.605469 40.875 M 237.324219 37.875 C 237.511719 37.875 237.699219 37.875 237.886719 37.6875 L 237.886719 39.9375 C 237.886719 40.125 237.886719 40.5 237.699219 40.6875 C 237.511719 40.875 237.324219 41.0625 236.953125 41.25 C 236.390625 41.4375 235.640625 41.4375 235.078125 41.4375 C 233.207031 41.625 231.332031 40.5 230.769531 38.625 C 230.207031 39.5625 229.273438 40.3125 228.335938 40.6875 C 227.210938 41.25 226.085938 41.4375 224.964844 41.4375 C 223.839844 41.4375 222.714844 41.25 221.777344 40.6875 C 220.84375 40.3125 220.09375 39.5625 219.71875 38.625 C 219.15625 37.6875 218.96875 36.75 218.96875 35.8125 C 218.96875 34.125 219.90625 32.4375 221.40625 31.6875 C 223.652344 30.5625 226.085938 30.1875 228.523438 30.375 L 230.394531 30.375 C 230.394531 29.8125 230.207031 29.0625 230.019531 28.5 C 229.644531 27.9375 229.273438 27.5625 228.710938 27.375 C 227.960938 27.1875 227.023438 27 226.273438 27 C 225.339844 27 224.402344 27 223.464844 27.1875 L 220.65625 27.75 L 220.65625 25.3125 C 220.65625 24.9375 220.65625 24.75 220.84375 24.375 C 221.03125 24.1875 221.40625 24 221.589844 23.8125 C 222.339844 23.625 223.277344 23.4375 224.027344 23.25 C 224.964844 23.0625 226.085938 23.0625 227.023438 23.0625 C 229.273438 22.875 231.519531 23.4375 233.390625 24.75 C 234.703125 25.875 235.453125 27.75 235.265625 29.4375 L 235.265625 35.625 C 235.265625 36.1875 235.265625 36.5625 235.640625 36.9375 C 236.015625 37.3125 236.390625 37.3125 236.765625 37.3125 C 236.953125 37.875 237.140625 37.875 237.324219 37.875 M 228.523438 37.6875 C 229.085938 37.3125 229.644531 36.9375 229.832031 36.375 C 230.207031 35.8125 230.394531 35.0625 230.394531 34.5 L 230.394531 33.1875 L 229.457031 33.1875 C 227.960938 33.1875 226.460938 33.375 225.152344 33.75 C 224.214844 33.9375 223.652344 34.875 223.839844 35.625 C 223.839844 36.1875 224.027344 36.9375 224.589844 37.3125 C 225.152344 37.875 225.898438 38.0625 226.648438 38.0625 C 227.210938 38.0625 227.960938 38.0625 228.523438 37.6875 M 251.9375 24.5625 L 251.9375 27.9375 L 250.25 27.9375 C 248.941406 27.75 247.628906 28.3125 246.691406 29.0625 C 245.753906 30 245.378906 31.3125 245.566406 32.625 L 245.566406 41.0625 L 240.699219 41.0625 L 240.699219 24.9375 C 240.699219 24.375 241.074219 23.8125 241.632812 23.8125 L 245.378906 23.8125 L 245.378906 27.375 C 245.753906 26.25 246.503906 25.125 247.628906 24.375 C 248.566406 23.625 249.875 23.25 251 23.25 C 251.5625 23.4375 251.9375 23.8125 251.9375 24.5625 "/>
</g>
</svg>
