<svg width="400" height="300" viewBox="0 0 400 300" fill="none" xmlns="http://www.w3.org/2000/svg">
<rect x="104" y="54" width="192" height="192" fill="#FF7900" style="fill:#FF7900;fill:color(display-p3 1.0000 0.4745 0.0000);fill-opacity:1;"/>
<path d="M274.139 193.802H276.897V192.625H269.92V193.802H272.679V201.441H274.139V193.802Z" fill="white" style="fill:white;fill-opacity:1;"/>
<path d="M286.937 201.441H288.39V192.652H286.166L283.577 199.345L280.947 192.652H278.702V201.441H280.156V194.079H280.196L283.083 201.441H284.003L286.889 194.079H286.937V201.441Z" fill="white" style="fill:white;fill-opacity:1;"/>
<path fill-rule="evenodd" clip-rule="evenodd" d="M249.429 216.071C249.429 224.846 254.121 229.896 261.984 229.896C267.467 229.896 271.536 227.909 273.801 224.136L268.656 221.283C267.014 223.596 265.263 224.664 262.606 224.664C258.475 224.664 256.379 222.115 256.325 217.065H274.085C274.085 216.852 274.098 216.632 274.112 216.409C274.125 216.18 274.139 215.946 274.139 215.713C274.139 207.039 269.576 202.137 261.869 202.137C254.162 202.137 249.429 207.296 249.429 216.071ZM261.869 206.883C265.215 206.883 267.243 208.979 267.243 212.549H256.46C256.724 208.912 258.705 206.883 261.869 206.883Z" fill="white" style="fill:white;fill-opacity:1;"/>
<path fill-rule="evenodd" clip-rule="evenodd" d="M245.197 202.651V227.902C245.197 232.364 244.859 239.699 232.143 239.78C226.903 239.78 222.042 237.718 221.069 233.135L227.998 232.019C228.289 233.331 229.087 234.642 233.015 234.642C236.659 234.642 238.423 232.898 238.423 228.727V225.624L238.329 225.529C237.213 227.517 235.516 229.41 231.44 229.41C225.227 229.41 220.325 225.096 220.325 216.078C220.325 207.161 225.375 202.171 231.047 202.165C236.175 202.165 238.195 204.406 238.74 205.713L239.289 202.665L245.197 202.651ZM232.677 223.69C238.004 223.65 238.45 218.234 238.45 214.692C238.45 210.527 236.422 207.134 232.629 207.134C230.108 207.134 227.295 208.972 227.295 214.983C227.295 218.282 227.525 223.724 232.677 223.69Z" fill="white" style="fill:white;fill-opacity:1;"/>
<path d="M191.572 203.456L197.38 202.651L198.015 205.815C201.294 203.415 203.897 202.137 207.176 202.137C212.665 202.137 215.491 205.051 215.491 210.818V229.389H208.481V212.042C208.481 208.776 207.629 207.309 205.1 207.309C203.005 207.309 200.916 208.276 198.536 210.27V229.403H191.572V203.456Z" fill="white" style="fill:white;fill-opacity:1;"/>
<path fill-rule="evenodd" clip-rule="evenodd" d="M179.174 227.07C176.573 228.809 173.513 229.732 170.385 229.721C165.409 229.721 162.468 226.408 162.468 221.973C162.468 216.003 167.958 212.839 179.268 211.562V210.081C179.268 208.141 177.794 207.019 175.077 207.019C172.547 206.947 170.135 208.084 168.58 210.081L163.847 207.377C166.335 203.902 170.126 202.167 175.219 202.171C182.169 202.171 186.036 205.18 186.036 210.081V229.416H179.816L179.174 227.07ZM169.337 221.466C169.34 223.255 170.469 224.927 172.501 224.927C174.712 224.927 176.855 224.008 179.005 222.115V215.801C172.452 216.631 169.342 218.313 169.337 221.466Z" fill="white" style="fill:white;fill-opacity:1;"/>
<path d="M145.594 202.732H152.266V205.869C154.101 203.678 156.762 202.344 159.615 202.185C159.918 202.177 160.221 202.193 160.521 202.232V208.817H160.183C157.127 208.817 153.788 209.29 152.746 211.663V229.403H145.594V202.732Z" fill="white" style="fill:white;fill-opacity:1;"/>
<path fill-rule="evenodd" clip-rule="evenodd" d="M127.583 230.187C120.64 230.187 114.387 225.766 114.387 216.112C114.387 206.457 120.64 202.056 127.583 202.056C134.526 202.056 140.78 206.485 140.78 216.132C140.78 225.779 134.52 230.187 127.583 230.187ZM127.583 207.972C122.344 207.972 121.37 212.704 121.37 216.085C121.37 219.465 122.344 224.231 127.583 224.231C132.823 224.231 133.796 219.499 133.796 216.085C133.796 212.67 132.823 207.972 127.583 207.972Z" fill="white" style="fill:white;fill-opacity:1;"/>
</svg>
